<!-- icon666.com - MILLIONS vector ICONS FREE --><svg id="Layer" viewBox="0 0 24 24" xmlns="http://www.w3.org/2000/svg"><path id="shuffle" d="m21.692 17.287a.755.755 0 0 1 -.162.243l-2 2a.75.75 0 0 1 -1.06-1.06l.719-.72h-1.748a3.728 3.728 0 0 1 -2.927-1.408l-6.2-7.742a2.235 2.235 0 0 0 -1.755-.85h-3.559a.75.75 0 0 1 0-1.5h3.559a3.728 3.728 0 0 1 2.927 1.408l6.2 7.747a2.235 2.235 0 0 0 1.755.845h1.748l-.719-.72a.75.75 0 0 1 1.06-1.06l2 2a.751.751 0 0 1 .162.817zm-7.692-7.037a.748.748 0 0 0 .586-.281l1.1-1.375a2.237 2.237 0 0 1 1.755-.844h1.748l-.719.72a.75.75 0 1 0 1.06 1.06l2-2a.751.751 0 0 0 0-1.06l-2-2a.75.75 0 0 0 -1.06 1.06l.719.72h-1.748a3.73 3.73 0 0 0 -2.927 1.407l-1.1 1.374a.751.751 0 0 0 .586 1.219zm-4.586 3.781-1.1 1.375a2.237 2.237 0 0 1 -1.755.844h-3.559a.75.75 0 0 0 0 1.5h3.559a3.73 3.73 0 0 0 2.927-1.407l1.1-1.374a.751.751 0 0 0 -1.172-.938z" fill="#ada490"></path></svg>